#!OML:ASF F:\VICON\USERDATA\INSTALL\rory3\rory3.ASF
:FULLY-SPECIFIED
:DEGREES
282
root 0.449358 21.9367 4.38916 -174.02 2.13676 175.305
lowerback 20.717 0.244176 -5.6411
upperback 4.16788 -0.239873 -3.46287
thorax -6.99709 0.35897 -0.520241
lowerneck -10.5027 -1.87881 -8.63776
upperneck 9.4913 -2.15131 8.64851
head 4.74953 -0.812619 3.95871
rclavicle -9.34288e-015 -4.69132e-014
rhumerus 5.32404 0.183817 -81.2452
rradius 70.4179
rwrist 0.786431
rhand -40.2821 7.88124
rfingers 7.12502
rthumb -13.2397 -21.6783
lclavicle -9.34288e-015 -4.69132e-014
lhumerus 16.0536 -8.43224 78.0233
lradius 81.2608
lwrist 25.7262
lhand -25.0985 39.1053
lfingers 7.12502
lthumb 1.41642 69.0804
rfemur -34.4072 13.7789 10.4471
rtibia 58.486
rfoot -4.04015 -9.10211
rtoes -4.31019
lfemur -49.8855 11.1755 -31.9164
ltibia 67.341
lfoot -13.9295 1.43736
ltoes -16.1821
283
root 0.423147 21.9959 4.38194 -174.043 2.37401 175.455
lowerback 20.7236 0.262118 -5.43506
upperback 4.20468 -0.169896 -3.43393
thorax -6.96513 0.387033 -0.622931
lowerneck -10.4641 -1.92677 -8.57608
upperneck 9.53828 -2.23124 8.67048
head 4.76427 -0.847936 3.9501
rclavicle -9.93923e-015 -2.3059e-014
rhumerus 5.45825 0.259422 -81.2471
rradius 69.8442
rwrist 1.08533
rhand -40.1096 7.41642
rfingers 7.12502
rthumb -13.0734 -22.1538
lclavicle -9.93923e-015 -2.3059e-014
lhumerus 15.6848 -8.36896 78.2153
lradius 81.1739
lwrist 25.5921
lhand -24.9999 38.8521
lfingers 7.12502
lthumb 1.51163 68.8265
rfemur -35.2427 13.3601 10.5453
rtibia 60.0074
rfoot -4.79632 -9.00763
rtoes -2.9337
lfemur -49.451 11.2552 -31.8114
ltibia 66.6198
lfoot -13.6298 1.61729
ltoes -15.8493
284
root 0.393604 22.0785 4.36785 -174.077 3.06405 175.603
lowerback 20.5867 0.416669 -5.41427
upperback 4.24499 0.0473715 -3.37487
thorax -6.85513 0.48578 -0.62357
lowerneck -10.3858 -1.92985 -8.7153
upperneck 9.55163 -2.23141 8.77514
head 4.7579 -0.84783 4.00677
rclavicle 8.94531e-015 4.13472e-014
rhumerus 5.56107 0.646703 -81.1096
rradius 69.381
rwrist 1.27792
rhand -40.1333 6.85717
rfingers 7.12502
rthumb -13.0963 -22.7116
lclavicle 8.94531e-015 4.13472e-014
lhumerus 15.3283 -8.12305 78.4394
lradius 81.0593
lwrist 25.5398
lhand -24.7424 38.2871
lfingers 7.12502
lthumb 1.76036 68.2596
rfemur -35.9908 13.268 10.5843
rtibia 61.3614
rfoot -5.14844 -8.57825
rtoes -3.35928
lfemur -48.9071 11.8433 -31.7572
ltibia 65.8397
lfoot -13.3882 1.7422
ltoes -15.7257
285
root 0.369174 22.1614 4.33354 -174.426 4.43906 175.644
lowerback 20.4909 0.851853 -5.75188
upperback 4.3508 0.575678 -3.40508
thorax -6.70243 0.749101 -0.598481
lowerneck -10.4131 -1.89222 -8.69815
upperneck 9.72259 -2.18902 8.80693
head 4.81117 -0.821783 4.01908
rclavicle -2.56432e-014 -7.63333e-014
rhumerus 5.60926 1.01463 -81.0481
rradius 68.9157
rwrist 1.4483
rhand -40.2191 6.45365
rfingers 7.12502
rthumb -13.179 -23.1098
lclavicle -2.56432e-014 -7.63333e-014
lhumerus 14.9699 -7.8932 78.6208
lradius 80.8808
lwrist 25.6246
lhand -24.325 37.5269
lfingers 7.12502
lthumb 2.16347 67.4957
rfemur -36.4448 13.8185 10.5553
rtibia 62.6692
rfoot -5.69355 -8.32214
rtoes -4.03996
lfemur -47.9818 13.2691 -31.7624
ltibia 65.0822
lfoot -13.3378 1.76105
ltoes -15.9802
286
root 0.353211 22.2257 4.31634 -174.473 4.84109 175.696
lowerback 20.3923 0.946776 -5.81748
upperback 4.36776 0.693938 -3.4102
thorax -6.63564 0.805188 -0.594287
lowerneck -10.4058 -1.87188 -8.53011
upperneck 9.80102 -2.18266 8.75587
head 4.83108 -0.814184 3.97628
rclavicle -6.95746e-015 3.49861e-014
rhumerus 5.65383 1.2691 -81.0825
rradius 68.3067
rwrist 1.39485
rhand -40.4072 6.80584
rfingers 7.12502
rthumb -13.3603 -22.7458
lclavicle -6.95746e-015 3.49861e-014
lhumerus 14.5634 -7.89929 78.6613
lradius 80.8345
lwrist 25.9067
lhand -24.4589 37.23
lfingers 7.12502
lthumb 2.03417 67.2
rfemur -37.1027 13.5208 10.5902
rtibia 64.0586
rfoot -6.46585 -8.11152
rtoes -5.96204
lfemur -47.4814 13.6444 -31.7302
ltibia 64.3475
lfoot -13.0456 1.80518
ltoes -16.449
287
root 0.337084 22.2799 4.31233 -174.462 4.78932 175.806
lowerback 20.4826 0.847282 -5.68991
upperback 4.32456 0.57158 -3.36213
thorax -6.72754 0.74142 -0.585835
lowerneck -10.2398 -1.87921 -8.47891
upperneck 9.81071 -2.20936 8.74888
head 4.80789 -0.828168 3.96387
rclavicle 1.78906e-014 -2.38542e-015
rhumerus 5.63904 1.62467 -81.0675
rradius 67.6477
rwrist 1.0631
rhand -40.4322 7.80634
rfingers 7.12502
rthumb -13.3844 -21.7437
lclavicle 1.78906e-014 -2.38542e-015
lhumerus 14.1453 -7.91471 78.6707
lradius 80.7465
lwrist 26.2428
lhand -25.0088 37.2736
lfingers 7.12502
lthumb 1.50308 67.248
rfemur -37.7976 12.899 10.7342
rtibia 65.5034
rfoot -7.32326 -8.15917
rtoes -7.31474
lfemur -47.0859 13.5394 -31.6118
ltibia 63.6433
lfoot -12.7135 1.74523
ltoes -17.0961
